<svg xmlns="http://www.w3.org/2000/svg" viewBox="0 0 1200 1200" role="img" aria-labelledby="title desc">
  <title id="title">Wakeve app icon mark</title>
  <desc id="desc">Rounded-square Wakeve mark with a Liquid Glass W ribbon symbol.</desc>
  <defs>
    <radialGradient id="halo" cx="72%" cy="75%" r="55%">
      <stop offset="0" stop-color="#F0B58E" stop-opacity="0.44"/>
      <stop offset="0.46" stop-color="#25304B" stop-opacity="0.34"/>
      <stop offset="1" stop-color="#111A2E" stop-opacity="1"/>
    </radialGradient>
    <linearGradient id="base" x1="112" y1="80" x2="1090" y2="1120" gradientUnits="userSpaceOnUse">
      <stop offset="0" stop-color="#17213A"/>
      <stop offset="0.48" stop-color="#202329"/>
      <stop offset="1" stop-color="#2B2426"/>
    </linearGradient>
  </defs>
  <rect x="72" y="72" width="1056" height="1056" rx="248" fill="url(#base)"/>
  <rect x="72" y="72" width="1056" height="1056" rx="248" fill="url(#halo)"/>
  <g transform="translate(88 88)">
    <svg viewBox="0 0 1024 1024" width="1024" height="1024">
      <defs>
        <linearGradient id="ribbonA" x1="188" y1="244" x2="472" y2="780" gradientUnits="userSpaceOnUse">
          <stop offset="0" stop-color="#F7FAF8" stop-opacity="0.94"/>
          <stop offset="0.46" stop-color="#BFD5F2" stop-opacity="0.78"/>
          <stop offset="1" stop-color="#C9B8EA" stop-opacity="0.70"/>
        </linearGradient>
        <linearGradient id="ribbonB" x1="356" y1="760" x2="702" y2="244" gradientUnits="userSpaceOnUse">
          <stop offset="0" stop-color="#D7E7F7" stop-opacity="0.72"/>
          <stop offset="0.52" stop-color="#F6F8F3" stop-opacity="0.92"/>
          <stop offset="1" stop-color="#F0B58E" stop-opacity="0.68"/>
        </linearGradient>
        <linearGradient id="ribbonC" x1="574" y1="258" x2="836" y2="746" gradientUnits="userSpaceOnUse">
          <stop offset="0" stop-color="#F8FAF5" stop-opacity="0.90"/>
          <stop offset="0.46" stop-color="#C5B8EA" stop-opacity="0.76"/>
          <stop offset="1" stop-color="#90ABD8" stop-opacity="0.70"/>
        </linearGradient>
      </defs>
      <g fill="none" stroke-linecap="round" stroke-linejoin="round">
        <path d="M212 316 C276 464 328 594 406 732 C454 650 491 571 529 493" stroke="url(#ribbonA)" stroke-width="136"/>
        <path d="M392 734 C462 594 512 476 590 312 C652 462 702 594 782 724" stroke="url(#ribbonB)" stroke-width="136"/>
        <path d="M588 318 C652 466 704 596 786 728" stroke="url(#ribbonC)" stroke-width="136"/>
      </g>
      <g fill="none" stroke-linecap="round" opacity="0.76">
        <path d="M221 292 C280 438 332 568 410 708" stroke="#FFFFFF" stroke-width="20"/>
        <path d="M406 710 C474 574 519 462 584 322" stroke="#FFFFFF" stroke-width="18"/>
        <path d="M604 296 C664 438 718 578 790 704" stroke="#FFFFFF" stroke-width="18"/>
      </g>
    </svg>
  </g>
</svg>
